<svg width="58" height="60" viewBox="0 0 58 60" fill="none" xmlns="http://www.w3.org/2000/svg">
<rect width="58" height="60" fill="#323232"/>
<path d="M49 30C49 41.0457 40.0457 50 29 50C17.9543 50 9 41.0457 9 30C9 18.9543 17.9543 10 29 10C40.0457 10 49 18.9543 49 30Z" fill="#F4B329"/>
<path d="M29.1828 39.66L28.1391 38.7181C26.344 37.0698 24.86 35.6479 23.687 34.4525C22.5141 33.257 21.5796 32.1884 20.8838 31.2465C20.188 30.3045 19.7001 29.4517 19.42 28.688C19.14 27.9243 19 27.1521 19 26.3714C19 24.8414 19.5134 23.5636 20.5401 22.5382C21.5669 21.5127 22.8355 21 24.346 21C25.3133 21 26.2086 21.2291 27.0317 21.6873C27.8548 22.1456 28.5718 22.8074 29.1828 23.673C29.8956 22.7565 30.6508 22.0819 31.4485 21.6492C32.2461 21.2164 33.1032 21 34.0196 21C35.5301 21 36.7987 21.5127 37.8255 22.5382C38.8522 23.5636 39.3656 24.8414 39.3656 26.3714C39.3656 27.1521 39.2256 27.9243 38.9456 28.688C38.6656 29.4517 38.1776 30.3045 37.4818 31.2465C36.786 32.1884 35.8516 33.257 34.6786 34.4525C33.5056 35.6479 32.0216 37.0698 30.2265 38.7181L29.1828 39.66ZM29.1828 37.6489C30.9009 36.0706 32.3148 34.7172 33.4244 33.5886C34.534 32.4599 35.4155 31.4713 36.0689 30.6228C36.7223 29.7742 37.1806 29.0178 37.4436 28.3536C37.7067 27.6895 37.8382 27.0299 37.8382 26.3751C37.8382 25.2526 37.4818 24.3306 36.769 23.6093C36.0562 22.8881 35.1417 22.5274 34.0254 22.5274C33.1509 22.5274 32.3416 22.7947 31.5974 23.3293C30.8532 23.8639 30.252 24.6149 29.7938 25.5823H28.5464C28.1051 24.6319 27.5124 23.8851 26.7682 23.342C26.024 22.799 25.2147 22.5274 24.3402 22.5274C23.224 22.5274 22.3094 22.8881 21.5966 23.6093C20.8838 24.3306 20.5274 25.254 20.5274 26.3795C20.5274 27.036 20.6589 27.6994 20.922 28.3698C21.1851 29.0402 21.6433 29.8039 22.2967 30.6609C22.9501 31.518 23.8368 32.5066 24.9569 33.6267C26.0771 34.7468 27.4857 36.0875 29.1828 37.6489Z" fill="#252525"/>
</svg>
