<svg width="32" height="24" viewBox="0 0 32 24" fill="none" xmlns="http://www.w3.org/2000/svg">
<path d="M18.1818 13.8182C16.9697 13.8182 15.9394 13.3939 15.0909 12.5455C14.2424 11.697 13.8182 10.6667 13.8182 9.45455C13.8182 8.24242 14.2424 7.21212 15.0909 6.36364C15.9394 5.51515 16.9697 5.09091 18.1818 5.09091C19.3939 5.09091 20.4242 5.51515 21.2727 6.36364C22.1212 7.21212 22.5455 8.24242 22.5455 9.45455C22.5455 10.6667 22.1212 11.697 21.2727 12.5455C20.4242 13.3939 19.3939 13.8182 18.1818 13.8182ZM6.54545 18.9091C5.94545 18.9091 5.43182 18.6955 5.00455 18.2682C4.57727 17.8409 4.36364 17.3273 4.36364 16.7273V2.18182C4.36364 1.58182 4.57727 1.06818 5.00455 0.640909C5.43182 0.213636 5.94545 0 6.54545 0H29.8182C30.4182 0 30.9318 0.213636 31.3591 0.640909C31.7864 1.06818 32 1.58182 32 2.18182V16.7273C32 17.3273 31.7864 17.8409 31.3591 18.2682C30.9318 18.6955 30.4182 18.9091 29.8182 18.9091H6.54545ZM10.1818 16.7273H26.1818C26.1818 15.7091 26.5333 14.8485 27.2364 14.1455C27.9394 13.4424 28.8 13.0909 29.8182 13.0909V5.81818C28.8 5.81818 27.9394 5.46667 27.2364 4.76364C26.5333 4.06061 26.1818 3.2 26.1818 2.18182H10.1818C10.1818 3.2 9.8303 4.06061 9.12727 4.76364C8.42424 5.46667 7.56364 5.81818 6.54545 5.81818V13.0909C7.56364 13.0909 8.42424 13.4424 9.12727 14.1455C9.8303 14.8485 10.1818 15.7091 10.1818 16.7273ZM27.6364 23.2727H2.18182C1.58182 23.2727 1.06818 23.0591 0.640909 22.6318C0.213636 22.2045 0 21.6909 0 21.0909V4.36364H2.18182V21.0909H27.6364V23.2727Z" fill="#F4B329"/>
</svg>
