<svg width="26" height="27" viewBox="0 0 26 27" fill="none" xmlns="http://www.w3.org/2000/svg">
<path d="M9.38674 0.0471153C6.0457 0.423428 3.18777 2.24396 1.47911 5.07647C0.777342 6.241 0.345092 7.43096 0.0908279 8.86501C-0.0413896 9.63288 -0.0261338 11.4077 0.116254 12.1959C0.726489 15.5369 2.69958 18.2321 5.64396 19.7577C7.2204 20.5713 8.64937 20.9171 10.4496 20.9121C12.6413 20.9121 14.4415 20.3679 16.2722 19.1576L16.8774 18.7559L20.4167 22.28C22.8017 24.6599 24.0171 25.8397 24.1544 25.9058C24.429 26.0329 25.0037 26.0329 25.2477 25.9058C25.858 25.5854 26.1377 24.9243 25.9343 24.2938C25.8478 24.0344 25.6597 23.831 22.2881 20.4544L18.7335 16.8896L19.1251 16.3099C21.0117 13.5231 21.4287 10.0346 20.254 6.80547C19.8726 5.74772 19.1403 4.51708 18.347 3.59665C17.0248 2.07106 15.1535 0.886189 13.2363 0.372574C12.0667 0.0572872 10.4801 -0.0800171 9.38674 0.0471153ZM11.2022 2.64061C13.1346 2.84911 14.6449 3.56614 15.9976 4.91882C17.3757 6.29694 18.108 7.8632 18.2911 9.81596C18.4538 11.5602 17.986 13.3401 16.9536 14.8911C16.5265 15.5369 15.5196 16.5438 14.8738 16.971C12.2701 18.705 9.06128 18.7966 6.41184 17.21C4.49977 16.0709 3.15217 14.1486 2.70975 11.9264C2.54702 11.1127 2.54702 9.82104 2.70975 9.00739C3.16743 6.71393 4.57605 4.76118 6.61017 3.60682C7.96794 2.83385 9.68168 2.4728 11.2022 2.64061Z" fill="#F6F6F6"/>
</svg>
