<svg width="30" height="26" viewBox="0 0 30 26" fill="none" xmlns="http://www.w3.org/2000/svg">
<path d="M0.45091 0.121399C0.202331 0.248579 0 0.589651 0 0.867134C0 1.15618 0.202331 1.48569 0.462472 1.61865C0.676365 1.72849 0.797764 1.73427 3.05809 1.73427H5.43404L5.46295 1.86145C5.5381 2.16784 8.55573 15.7818 8.55573 15.8108C8.55573 15.8223 8.44589 15.8917 8.31293 15.9611C8.17419 16.0304 7.91983 16.2328 7.7464 16.412C6.97176 17.2097 6.79255 18.3081 7.27237 19.3313C7.60766 20.0482 8.33027 20.6031 9.12804 20.7534C9.30146 20.7823 9.8044 20.8112 10.2553 20.817C10.8854 20.8228 11.0126 20.8344 10.8161 20.8748C9.50379 21.1292 8.55573 22.4819 8.7754 23.7942C9.01242 25.2105 10.3362 26.1932 11.7121 25.9678C12.8452 25.7828 13.7007 24.9272 13.8857 23.7942C14.1054 22.4819 13.1573 21.1292 11.8451 20.8748C11.6948 20.8459 14.0013 20.8228 17.4294 20.8228C20.8575 20.8228 23.1641 20.8459 23.0138 20.8748C21.7015 21.1292 20.7534 22.4819 20.9731 23.7942C21.1581 24.9272 22.0137 25.7828 23.1467 25.9678C24.5226 26.1932 25.8464 25.2105 26.0834 23.7942C26.3031 22.4819 25.355 21.1292 24.0427 20.8748C23.8462 20.8344 23.9792 20.8228 24.6151 20.817C25.3203 20.8112 25.4764 20.7939 25.6672 20.6956C25.9273 20.5626 26.1297 20.2331 26.1297 19.9441C26.1297 19.655 25.9273 19.3255 25.6672 19.1926C25.4417 19.077 25.3435 19.077 17.4294 19.077C9.51536 19.077 9.41708 19.077 9.19163 18.9613C8.93149 18.8284 8.72915 18.4989 8.72915 18.2098C8.72915 17.9497 8.93149 17.5913 9.15116 17.4757C9.32459 17.3774 9.82752 17.3716 17.441 17.3427C25.5111 17.3138 25.5458 17.3138 25.7019 17.1924C25.7886 17.1288 25.91 17.0132 25.9678 16.9322C26.0834 16.7819 29.5982 4.54956 29.5982 4.30677C29.5982 4.04663 29.3843 3.71134 29.1357 3.58416C28.9103 3.46854 28.8178 3.46854 18.2503 3.46854H7.59032L7.27815 2.04066C7.05269 1.00588 6.92551 0.554966 6.82146 0.398882C6.5671 0 6.58444 0 3.4512 0C0.791983 0.00578117 0.653241 0.0115623 0.45091 0.121399Z" fill="white"/>
</svg>
